<svg viewBox="0 0 220 220" xmlns="http://www.w3.org/2000/svg" role="img" aria-label="Sobremesa emblem app icon">
  <rect x="0" y="0" width="220" height="220" rx="48" fill="#1B2A24"/>
  <g transform="translate(110 110) scale(0.86) translate(-100 -100)">
    <circle cx="100" cy="100" r="84" fill="none" stroke="#E8B04B" stroke-width="3"/>
    <g fill="#7FB069">
      <g transform="translate(41 102)">
        <rect x="-2" y="-32" width="3" height="13" rx="1.5"/>
        <rect x="3.5" y="-32" width="3" height="13" rx="1.5"/>
        <rect x="9" y="-32" width="3" height="13" rx="1.5"/>
        <rect x="-2" y="-21" width="14" height="5" rx="2.5"/>
        <rect x="3" y="-18" width="4" height="48" rx="2"/>
      </g>
      <g transform="translate(148 102)">
        <path d="M3,-32 C6,-23 7,-15 7,-8 L7,1 L0,1 L0,-8 C0,-15 1,-23 3,-32 Z"/>
        <rect x="1" y="-1" width="4" height="31" rx="2"/>
      </g>
    </g>
    <text x="100" y="140" text-anchor="middle"
          font-family="'Helvetica Neue', Helvetica, Arial, sans-serif"
          font-size="122" font-weight="800" fill="#E8B04B">S</text>
  </g>
</svg>
