<svg viewBox="0 0 760 200" xmlns="http://www.w3.org/2000/svg" role="img" aria-label="Sobremesa logo">
  <!-- Icon mark -->
  <g transform="translate(8 6) scale(0.92)">
    <circle cx="100" cy="92" r="72" fill="#E8B04B"/>
    <path d="M64,152 L103,152 L75,186 Z" fill="#E8B04B"/>
    <g fill="#1B2A24" transform="translate(0 4)">
      <g transform="rotate(-19 100 92)">
        <rect x="89" y="46" width="5" height="22" rx="2.5"/>
        <rect x="97.5" y="46" width="5" height="22" rx="2.5"/>
        <rect x="106" y="46" width="5" height="22" rx="2.5"/>
        <rect x="89" y="62" width="22" height="8" rx="4"/>
        <rect x="96.5" y="64" width="7" height="80" rx="3.5"/>
      </g>
      <g transform="rotate(19 100 92)">
        <path d="M100,44 C104,55 106,65 106,75 L106,90 L94,90 L94,75 C94,65 96,55 100,44 Z"/>
        <rect x="96.5" y="86" width="7" height="58" rx="3.5"/>
      </g>
    </g>
  </g>
  <!-- Wordmark -->
  <text x="212" y="104" font-family="'Helvetica Neue', Helvetica, Arial, sans-serif"
        font-size="62" font-weight="600" letter-spacing="1" fill="#1B2A24">sobremesa</text>
  <text x="214" y="140" font-family="'Helvetica Neue', Helvetica, Arial, sans-serif"
        font-size="20" font-weight="600" letter-spacing="6" fill="#C8913A">PHONE-FREE DINING</text>
</svg>
