<svg viewBox="0 0 760 200" xmlns="http://www.w3.org/2000/svg" role="img" aria-label="Sobremesa emblem logo">
  <!-- Emblem -->
  <g transform="translate(4 4) scale(0.96)">
    <circle cx="100" cy="100" r="94" fill="#1B2A24"/>
    <circle cx="100" cy="100" r="84" fill="none" stroke="#E8B04B" stroke-width="3"/>
    <g fill="#7FB069">
      <g transform="translate(41 102)">
        <rect x="-2" y="-32" width="3" height="13" rx="1.5"/>
        <rect x="3.5" y="-32" width="3" height="13" rx="1.5"/>
        <rect x="9" y="-32" width="3" height="13" rx="1.5"/>
        <rect x="-2" y="-21" width="14" height="5" rx="2.5"/>
        <rect x="3" y="-18" width="4" height="48" rx="2"/>
      </g>
      <g transform="translate(148 102)">
        <path d="M3,-32 C6,-23 7,-15 7,-8 L7,1 L0,1 L0,-8 C0,-15 1,-23 3,-32 Z"/>
        <rect x="1" y="-1" width="4" height="31" rx="2"/>
      </g>
    </g>
    <text x="100" y="140" text-anchor="middle"
          font-family="'Helvetica Neue', Helvetica, Arial, sans-serif"
          font-size="122" font-weight="800" fill="#E8B04B">S</text>
  </g>
  <!-- Wordmark -->
  <text x="232" y="104" font-family="'Helvetica Neue', Helvetica, Arial, sans-serif"
        font-size="62" font-weight="600" letter-spacing="1" fill="#1B2A24">sobremesa</text>
  <text x="234" y="140" font-family="'Helvetica Neue', Helvetica, Arial, sans-serif"
        font-size="20" font-weight="600" letter-spacing="6" fill="#C8913A">PHONE-FREE DINING</text>
</svg>
